<svg width="14" height="15" viewBox="0 0 14 15" fill="none" xmlns="http://www.w3.org/2000/svg">
<path d="M7.00001 0.333313C10.682 0.333313 13.6667 3.31798 13.6667 6.99998C13.6667 10.682 10.682 13.6666 7.00001 13.6666C3.31801 13.6666 0.333344 10.682 0.333344 6.99998C0.333344 3.31798 3.31801 0.333313 7.00001 0.333313ZM5.58601 4.64265C5.46632 4.52181 5.30496 4.45129 5.13498 4.44552C4.96499 4.43976 4.79923 4.49918 4.67162 4.61162C4.54401 4.72407 4.46421 4.88104 4.44854 5.0504C4.43287 5.21976 4.48253 5.3887 4.58734 5.52265L4.64334 5.58598L6.05668 6.99931L4.64334 8.41398C4.52251 8.53367 4.45199 8.69503 4.44622 8.86501C4.44045 9.035 4.49988 9.20076 4.61232 9.32837C4.72477 9.45598 4.88173 9.53578 5.05109 9.55145C5.22045 9.56712 5.3894 9.51746 5.52334 9.41265L5.58601 9.35731L7.00001 7.94265L8.41401 9.35731C8.5337 9.47815 8.69506 9.54867 8.86504 9.55444C9.03503 9.5602 9.20079 9.50078 9.3284 9.38834C9.45601 9.27589 9.53581 9.11892 9.55148 8.94956C9.56715 8.7802 9.51749 8.61126 9.41268 8.47731L9.35734 8.41398L7.94268 6.99998L9.35734 5.58598C9.47818 5.46629 9.5487 5.30493 9.55447 5.13495C9.56023 4.96496 9.50081 4.7992 9.38837 4.67159C9.27592 4.54398 9.11895 4.46418 8.94959 4.44851C8.78023 4.43284 8.61129 4.4825 8.47734 4.58731L8.41401 4.64265L7.00001 6.05731L5.58601 4.64265Z" fill="#FF2D55"/>
</svg>
