<svg width="14" height="15" viewBox="0 0 14 15" fill="none" xmlns="http://www.w3.org/2000/svg">
<path d="M7.00001 0.333332C10.682 0.333332 13.6667 3.318 13.6667 7C13.6667 10.682 10.682 13.6667 7.00001 13.6667C3.31801 13.6667 0.333344 10.682 0.333344 7C0.333344 3.318 3.31801 0.333332 7.00001 0.333332ZM9.66668 6.33333H4.33334C4.15653 6.33333 3.98696 6.40357 3.86194 6.52859C3.73691 6.65362 3.66668 6.82319 3.66668 7C3.66668 7.17681 3.73691 7.34638 3.86194 7.4714C3.98696 7.59643 4.15653 7.66667 4.33334 7.66667H9.66668C9.84349 7.66667 10.0131 7.59643 10.1381 7.4714C10.2631 7.34638 10.3333 7.17681 10.3333 7C10.3333 6.82319 10.2631 6.65362 10.1381 6.52859C10.0131 6.40357 9.84349 6.33333 9.66668 6.33333Z" fill="black"/>
</svg>
