<svg width="16" height="16" viewBox="0 0 16 16" fill="none" xmlns="http://www.w3.org/2000/svg">
<path d="M8.00001 1.33333C11.682 1.33333 14.6667 4.318 14.6667 8C14.6667 11.682 11.682 14.6667 8.00001 14.6667C4.31801 14.6667 1.33334 11.682 1.33334 8C1.33334 4.318 4.31801 1.33333 8.00001 1.33333ZM10.6667 7.33333H5.33334C5.15653 7.33333 4.98696 7.40357 4.86194 7.52859C4.73691 7.65362 4.66668 7.82319 4.66668 8C4.66668 8.17681 4.73691 8.34638 4.86194 8.4714C4.98696 8.59643 5.15653 8.66667 5.33334 8.66667H10.6667C10.8435 8.66667 11.0131 8.59643 11.1381 8.4714C11.2631 8.34638 11.3333 8.17681 11.3333 8C11.3333 7.82319 11.2631 7.65362 11.1381 7.52859C11.0131 7.40357 10.8435 7.33333 10.6667 7.33333Z" fill="black"/>
</svg>
