<svg width="16" height="16" viewBox="0 0 16 16" fill="none" xmlns="http://www.w3.org/2000/svg">
<path d="M8 1.33333C11.682 1.33333 14.6667 4.318 14.6667 8C14.6667 11.682 11.682 14.6667 8 14.6667C4.318 14.6667 1.33333 11.682 1.33333 8C1.33333 4.318 4.318 1.33333 8 1.33333ZM6.66666 5.33333C6.50337 5.33335 6.34577 5.3933 6.22375 5.50181C6.10172 5.61031 6.02377 5.75983 6.00466 5.922L6 6V10C6.00018 10.1699 6.06525 10.3334 6.18189 10.4569C6.29854 10.5805 6.45796 10.6548 6.62759 10.6648C6.79722 10.6747 6.96425 10.6195 7.09455 10.5105C7.22485 10.4014 7.30859 10.2467 7.32866 10.078L7.33333 10V6C7.33333 5.82319 7.26309 5.65362 7.13807 5.52859C7.01304 5.40357 6.84347 5.33333 6.66666 5.33333ZM9.33333 5.33333C9.15652 5.33333 8.98695 5.40357 8.86192 5.52859C8.7369 5.65362 8.66666 5.82319 8.66666 6V10C8.66666 10.1768 8.7369 10.3464 8.86192 10.4714C8.98695 10.5964 9.15652 10.6667 9.33333 10.6667C9.51014 10.6667 9.67971 10.5964 9.80473 10.4714C9.92976 10.3464 10 10.1768 10 10V6C10 5.82319 9.92976 5.65362 9.80473 5.52859C9.67971 5.40357 9.51014 5.33333 9.33333 5.33333Z" fill="#FF9500"/>
</svg>
